<svg width="256" height="256" viewBox="0 0 256 256" fill="none" xmlns="http://www.w3.org/2000/svg">
<path d="M256 128C256 198.692 198.692 256 128 256C57.3076 256 0 198.692 0 128C0 57.3076 57.3076 0 128 0C198.692 0 256 57.3076 256 128ZM31.6563 128C31.6563 181.209 74.7909 224.344 128 224.344C181.209 224.344 224.344 181.209 224.344 128C224.344 74.7909 181.209 31.6563 128 31.6563C74.7909 31.6563 31.6563 74.7909 31.6563 128Z" fill="#fafafa80"/>
<path d="M120.819 95.0478C120.602 95.1936 120.185 95.7077 119.9 96.3451C119.709 96.7754 119.681 97.0313 119.686 97.1168C119.711 97.1621 119.774 97.2672 119.914 97.4801L120.231 97.9624L120.096 98.2691C121.547 100.352 124.824 104.632 125.471 105.112C126.032 104.886 126.634 104.478 126.726 104.2C126.391 103.72 125.723 102.581 124.895 101.172C123.849 99.3891 122.065 96.3487 121.176 95.1692L120.819 95.0478ZM117.136 103.015C116.901 103.171 116.492 103.619 116.23 104.207C116.089 104.523 116.078 104.708 116.075 104.722C116.116 104.814 116.213 105.006 116.349 105.268L116.595 105.743L116.441 106.052C117.537 108.116 119.687 111.963 120.264 112.527C120.823 112.298 121.416 111.894 121.504 111.619C121.118 111.029 120.448 109.523 119.68 107.799C119.031 106.344 118.138 104.339 117.559 103.301L117.136 103.015ZM113.625 111.576L112.905 110.669C112.666 110.853 112.296 111.279 112.054 111.822C111.913 112.138 111.902 112.323 111.9 112.338C111.912 112.365 111.986 112.528 112.287 113.104L112.546 113.599L112.386 113.896C113.512 116.002 115.532 119.599 116.088 120.143C116.647 119.914 117.24 119.51 117.328 119.235C116.942 118.645 116.271 117.139 115.504 115.415C114.958 114.19 114.238 112.575 113.678 111.475L113.625 111.576ZM108.24 121.192L108.126 121.379L107.941 121.478C107.415 121.758 106.997 122.133 106.856 122.387L107.181 122.904L107.051 123.104C108.15 124.397 110.674 126.872 111.178 127.08C111.748 126.857 112.371 126.441 112.468 126.157C112.261 125.878 111.968 125.457 111.637 124.98C110.818 123.801 108.899 121.041 108.45 120.939L108.384 120.953C108.336 121.032 108.288 121.114 108.24 121.192ZM102.637 128.621L102.306 128.561C101.836 128.671 100.92 129.276 100.699 129.704L100.93 130.263L100.849 130.339C101.916 131.611 104.517 134.167 105.031 134.379C105.601 134.156 106.224 133.74 106.321 133.456C106.114 133.177 105.822 132.756 105.49 132.279C104.826 131.324 103.443 129.334 102.702 128.556L102.637 128.621ZM96.2168 134.747L95.8781 134.669C95.4563 134.764 94.5639 135.347 94.3431 135.822L94.3158 135.897L94.5395 136.459L94.4352 136.573C95.5175 138.017 98.3975 141.135 98.9771 141.423C99.5639 141.191 100.173 140.752 100.234 140.42C100.011 140.099 99.6853 139.6 99.3141 139.032C98.5879 137.919 97.0674 135.591 96.265 134.7L96.2168 134.747ZM142.898 152.781C141.372 153.373 139.851 153.954 138.338 154.518C106.126 166.529 77.222 172.165 67.8572 172.509C62.5253 172.705 60.108 172.24 58.9433 171.706L62.3494 185.356C63.1859 185.662 66.6315 186.407 78.296 184.663C90.4918 182.839 116.926 175.394 137.315 168.655C136.788 163.686 139.217 158.3 142.898 152.781ZM208.524 124.844C208.279 124.71 207.559 124.592 206.966 124.593L205.833 124.619C201.286 127.314 181.23 137.112 149.285 150.232C144.489 156.457 140.722 162.479 140.718 167.518C144.572 166.215 148.148 164.953 151.294 163.78C170.716 156.538 209.077 138.8 212.329 136.707C212.274 134.848 209.18 126.164 208.524 124.844ZM183.513 82.8141C174.972 90.6534 166.976 95.82 159.627 98.2666C165.202 101.986 169.743 106.566 170.891 112.639C179.857 109.406 187.109 103.529 191.653 96.8079C191.453 91.9753 187.617 87.2629 183.513 82.8141ZM93.5439 141.556C93.7236 141.209 93.906 140.857 94.0946 140.494C94.4558 139.798 94.8228 139.089 95.1909 138.376C94.8479 137.977 94.5239 137.587 94.252 137.243C92.2665 139.427 90.8228 141.472 91.0093 142.785C91.8228 142.341 92.6559 141.929 93.5439 141.556ZM82.0464 166.223C88.8011 165.26 105.929 160.253 121.183 155.23C118.601 150.906 111.847 150.753 105.377 151.649C102.035 152.625 98.3904 153.387 94.4224 153.854C90.9376 154.638 89.8037 154.773 89.3051 154.084C88.2115 152.574 89.5979 149.277 92.602 143.388C91.0091 144.18 89.5289 145.112 87.88 146.151C84.9494 147.998 81.3023 150.296 75.3336 152.849C73.5896 153.594 71.9422 154.231 70.4887 154.793C63.3787 157.54 59.4147 159.072 58.9404 167.285C60.6098 167.982 70.0838 167.928 82.0464 166.223ZM146.833 147.176C144.857 148.097 141.933 149.271 138.393 150.591C121.837 156.764 91.8093 166.113 82.2878 167.47C76.7292 168.263 70.8741 168.794 66.2241 168.929C61.9898 169.052 59.9625 168.831 58.9555 168.549C58.763 169.134 58.6068 169.707 58.5376 170.08L58.7471 170.92C59.5342 171.457 61.6275 172.107 67.7889 171.881C77.6469 171.518 109.239 165.268 143.528 151.853C144.621 150.268 145.808 148.673 147.051 147.076C146.979 147.108 146.903 147.144 146.833 147.176ZM128.011 113.607C127.54 114.544 125.093 119.017 117.077 128.321C108.63 138.125 103.509 146.328 103.035 150.718C103.742 150.594 104.457 150.481 105.173 150.381C117.036 146.88 124.982 140.65 129.88 135.467C136.71 128.238 139.963 120.616 140.601 116.95C135.226 116.362 131.151 114.976 128.011 113.607ZM150.485 99.9113C142.859 100.009 138.181 96.5879 136.006 94.8816C135.183 100.425 132.177 109.084 128.931 112.69C132.34 114.12 136.816 115.512 142.791 115.887C147.514 116.183 154.111 116.217 161.12 115.079C161.198 115.023 161.276 114.962 161.355 114.908L161.426 115.027C163.301 114.714 165.203 114.317 167.106 113.818C167.287 113.77 167.466 113.719 167.645 113.669L167.639 113.607C166.792 107.691 161.282 103.186 154.879 99.4844C153.384 99.7486 151.919 99.8934 150.485 99.9113ZM135.498 89.4239C135.451 90.0833 135.456 90.6952 135.525 91.2349C135.594 91.7751 135.765 92.4855 136.184 92.8061C136.312 92.9038 136.458 93.019 136.621 93.1477C141.213 96.7766 146.371 98.3627 152.065 97.9316C149.66 96.6588 147.207 95.4818 144.892 94.3702C141.116 92.5572 137.895 91.0111 135.498 89.4239ZM134.923 81.5261C134.887 81.8416 134.776 82.1192 134.612 82.3338C134.592 82.6975 134.612 83.1784 134.641 83.4731C134.791 83.3878 134.932 83.2776 135.058 83.1467C135.262 82.5056 135.482 81.8708 135.715 81.2522C135.695 80.7628 135.558 80.2855 135.311 79.8742C134.995 79.3474 134.538 78.9922 134.026 78.8745C133.714 78.8026 133.403 78.8236 133.114 78.9313C132.928 79.0008 132.749 79.1068 132.587 79.2474C132.164 79.6135 131.89 80.1694 131.819 80.812C131.798 80.9963 131.797 81.1809 131.811 81.3638L132.614 81.5191C132.586 81.3464 132.576 81.169 132.596 80.9907C132.66 80.4197 132.967 79.965 133.399 79.8042C133.57 79.7405 133.746 79.729 133.925 79.7702C134.223 79.8386 134.491 80.0488 134.679 80.3626C134.882 80.7014 134.969 81.1144 134.923 81.5261ZM205.008 120.065C202.73 121.818 197.614 124.481 191.246 127.499L191.092 127.778C191.037 127.739 190.983 127.695 190.929 127.649C181.911 131.912 170.468 136.859 161.019 140.944C158.688 141.951 156.483 142.905 154.479 143.777C152.981 145.591 151.491 147.411 150.073 149.218C183.022 135.65 202.386 125.998 205.8 123.936L206.102 123.221C206.109 123.118 205.996 122.776 205.914 122.527C205.747 122.025 205.541 121.4 205.449 120.6C205.412 120.279 205.216 120.13 205.008 120.065ZM100.959 140.523C101.029 140.912 100.962 141.315 100.769 141.657C100.501 142.133 100.044 142.398 99.5742 142.348C99.3891 142.329 99.2159 142.26 99.0608 142.145C99.0279 142.12 99.0002 142.089 98.9707 142.061C98.7973 142.027 98.4746 141.837 97.7453 141.131C97.7906 141.828 98.1005 142.488 98.641 142.89C99.5706 143.581 100.828 143.253 101.443 142.16C102.06 141.065 101.806 139.612 100.876 138.921C100.51 138.648 100.091 138.537 99.6816 138.566C99.71 138.609 99.737 138.65 99.7652 138.694C99.9894 139.037 100.196 139.353 100.372 139.62L100.457 139.667C100.715 139.859 100.893 140.163 100.959 140.523ZM101.53 131.937C101.224 131.613 100.914 131.274 100.644 130.963C100.4 131.193 100.153 131.425 99.9029 131.66C98.9403 132.564 97.8968 133.545 96.8737 134.546C97.11 134.829 97.3868 135.193 97.7156 135.654C99.0608 134.422 100.33 133.18 101.53 131.937ZM106.97 133.035C107.042 133.423 106.974 133.827 106.781 134.169C106.513 134.645 106.055 134.909 105.586 134.86L105.546 134.85C105.377 134.93 105.248 134.98 105.203 134.996C105.082 135.041 104.883 135.111 103.857 134.215C103.995 134.689 104.264 135.113 104.653 135.402C105.582 136.093 106.839 135.765 107.455 134.671C108.072 133.577 107.817 132.124 106.889 131.433C106.425 131.088 105.88 130.998 105.374 131.129C105.551 131.381 105.734 131.643 105.93 131.924L105.967 131.978C106.148 131.999 106.317 132.066 106.468 132.179C106.727 132.371 106.905 132.675 106.97 133.035ZM107.774 124.739C107.49 124.441 107.199 124.126 106.935 123.828C106.059 125.169 105.279 126.25 104.649 126.968C104.257 127.413 103.801 127.892 103.304 128.393C103.514 128.627 103.749 128.916 104.013 129.26C105.367 127.737 106.619 126.224 107.774 124.739ZM113.22 126.421C113.291 126.81 113.223 127.213 113.03 127.556C112.763 128.031 112.305 128.296 111.836 128.246C111.65 128.227 111.477 128.158 111.323 128.043C111.184 127.94 111.07 127.802 110.983 127.643C110.788 127.547 110.487 127.338 110.001 126.913C110.017 127.653 110.332 128.364 110.902 128.789C111.832 129.479 113.088 129.152 113.705 128.057C114.322 126.963 114.067 125.511 113.138 124.819C112.777 124.551 112.367 124.439 111.964 124.464C112.002 124.518 112.038 124.569 112.077 124.625C112.343 125.008 112.582 125.351 112.769 125.612C112.998 125.805 113.16 126.087 113.22 126.421ZM113.324 116.762C112.942 116.084 112.566 115.401 112.234 114.789C111.106 116.861 109.99 118.833 108.944 120.592C109.225 120.825 109.571 121.21 109.998 121.752C111.237 120.017 112.342 118.344 113.324 116.762ZM117.545 109.226C117.107 108.451 116.674 107.663 116.306 106.981C115.61 108.375 114.887 109.787 114.157 111.184C114.447 111.751 114.804 112.508 115.258 113.505C116.157 111.919 116.913 110.48 117.545 109.226ZM115.873 114.872C115.918 114.973 115.963 115.073 116.01 115.178C116.273 115.768 116.538 116.363 116.786 116.906C117.075 116.929 117.366 117.007 117.649 117.152C118.949 117.823 119.564 119.606 119.02 121.127C118.758 121.858 118.27 122.423 117.645 122.716C117.587 122.743 117.529 122.767 117.47 122.789C116.883 123.008 116.252 122.967 115.675 122.67C114.374 121.999 113.76 120.216 114.303 118.695C114.321 118.647 114.342 118.602 114.361 118.556C114.252 118.374 114.136 118.176 114.012 117.964C113.048 119.497 111.971 121.112 110.772 122.782C111.012 123.113 111.274 123.479 111.556 123.881C112.182 123.75 112.851 123.879 113.426 124.307C114.626 125.199 114.971 127.045 114.195 128.422C113.86 129.017 113.37 129.428 112.825 129.632C112.108 129.899 111.295 129.807 110.614 129.3C109.749 128.657 109.332 127.518 109.455 126.416C109.217 126.193 108.949 125.933 108.644 125.63C107.456 127.157 106.165 128.713 104.769 130.279C104.84 130.377 104.912 130.479 104.986 130.582C105.698 130.324 106.502 130.419 107.177 130.921C108.376 131.813 108.721 133.659 107.945 135.036C107.611 135.631 107.121 136.042 106.575 136.245C105.858 136.513 105.046 136.421 104.364 135.914C103.65 135.383 103.242 134.513 103.19 133.605C102.956 133.383 102.695 133.128 102.4 132.833C101.155 134.124 99.8366 135.415 98.4382 136.694C98.6991 137.078 98.9838 137.505 99.2982 137.982C99.9229 137.852 100.591 137.982 101.165 138.409C102.364 139.302 102.709 141.147 101.934 142.524C101.599 143.119 101.109 143.53 100.563 143.734C99.8461 144.001 99.0341 143.909 98.3523 143.403C97.5021 142.769 97.0839 141.657 97.188 140.572C96.9023 140.277 96.5726 139.925 96.1911 139.506C96.1434 139.454 96.095 139.4 96.0471 139.347C95.7271 139.967 95.4083 140.583 95.0936 141.189C93.5192 144.22 92.0326 147.083 91.0928 149.33C89.951 152.058 90.014 152.973 90.1229 153.264C90.7727 153.391 93.239 152.823 95.6277 152.272C97.4923 151.843 99.6282 151.351 101.869 150.929C102.202 144.376 111.912 132.415 116.221 127.413C123.661 118.778 126.274 114.298 126.908 113.11C125.961 112.671 125.106 112.245 124.334 111.859C123.956 111.67 123.598 111.491 123.256 111.325C123.79 112.166 123.948 113.301 123.584 114.32C123.322 115.052 122.834 115.616 122.208 115.909C122.15 115.936 122.092 115.96 122.034 115.982C121.446 116.201 120.816 116.161 120.238 115.863C118.938 115.192 118.322 113.409 118.867 111.888C118.897 111.804 118.931 111.724 118.967 111.645C118.766 111.325 118.533 110.938 118.263 110.476C117.597 111.777 116.805 113.257 115.873 114.872ZM115.506 120.319C115.321 120.079 115.08 119.725 114.761 119.214C114.468 120.362 114.938 121.619 115.877 122.104C116.36 122.353 116.898 122.362 117.385 122.134C117.885 121.899 118.277 121.444 118.488 120.853C118.921 119.644 118.453 118.238 117.447 117.718C117.332 117.659 117.216 117.615 117.098 117.583C117.414 118.254 117.678 118.772 117.833 118.974L117.899 119.061L117.906 119.17C117.915 119.307 117.884 119.436 117.832 119.559C117.886 119.863 117.863 120.18 117.757 120.476C117.569 121.001 117.164 121.351 116.702 121.389C116.519 121.403 116.34 121.367 116.172 121.281C115.892 121.136 115.673 120.864 115.554 120.516C115.532 120.452 115.52 120.385 115.506 120.319ZM120.029 113.086C119.884 112.967 119.68 112.725 119.367 112.264C118.995 113.449 119.461 114.792 120.441 115.297C120.924 115.546 121.46 115.556 121.949 115.327C122.449 115.092 122.84 114.638 123.052 114.046C123.485 112.837 123.017 111.43 122.01 110.911C121.898 110.854 121.785 110.81 121.671 110.779C121.809 111.046 121.925 111.249 122.008 111.358L122.075 111.445L122.082 111.555C122.091 111.697 122.058 111.83 122.002 111.956C122.143 112.102 122.259 112.283 122.332 112.499C122.46 112.875 122.456 113.29 122.321 113.669C122.133 114.194 121.728 114.544 121.265 114.582C121.082 114.597 120.904 114.56 120.735 114.473C120.455 114.329 120.236 114.057 120.118 113.709C120.05 113.509 120.022 113.297 120.029 113.086ZM120.034 99.1401C119.463 100.42 118.828 101.791 118.148 103.215C118.442 103.761 118.813 104.531 119.303 105.603L119.378 105.444C120.046 104.05 120.671 102.486 121.261 100.826C120.827 100.24 120.402 99.6571 120.034 99.1401ZM127.846 105.098C127.782 105.669 127.474 106.123 127.042 106.284C126.872 106.348 126.694 106.359 126.516 106.318C126.218 106.25 125.951 106.039 125.763 105.726L125.744 105.689C125.68 105.716 125.631 105.735 125.608 105.743C125.485 105.789 125.352 105.836 124.77 105.229C124.83 105.578 124.95 105.914 125.131 106.214C125.447 106.741 125.903 107.096 126.416 107.214C126.928 107.332 127.439 107.199 127.854 106.841C128.278 106.475 128.55 105.919 128.622 105.277C128.694 104.633 128.556 103.983 128.233 103.445C127.917 102.919 127.46 102.564 126.948 102.446C126.726 102.395 126.505 102.393 126.291 102.434C126.498 102.782 126.683 103.09 126.838 103.34L126.848 103.342C127.146 103.41 127.413 103.62 127.601 103.934C127.805 104.272 127.891 104.686 127.846 105.098ZM130.479 75.7819C129.103 77.3308 127.679 82.6607 126.172 88.3176C127.175 88.9768 128.242 89.7263 129.152 90.4069C129.624 90.1232 130.164 90.0326 130.709 90.1581C131.384 90.3131 131.982 90.775 132.391 91.458C132.795 92.1302 132.968 92.9384 132.88 93.7332C132.791 94.5284 132.45 95.2181 131.921 95.6762C131.711 95.8568 131.483 95.9928 131.242 96.0828C130.863 96.2241 130.452 96.2512 130.04 96.1566C129.365 96.0011 128.767 95.5392 128.357 94.8563C128.121 94.462 127.966 94.0207 127.895 93.5632C126.764 93.1017 125.836 92.7081 125.079 92.3738C124.586 94.1734 124.069 95.9903 123.522 97.76C124.034 98.605 124.64 99.6283 125.365 100.863C125.569 101.21 125.765 101.546 125.952 101.862C126.292 101.761 126.653 101.747 127.016 101.831C127.691 101.986 128.289 102.448 128.699 103.13C129.102 103.803 129.275 104.611 129.187 105.406C129.098 106.201 128.757 106.891 128.228 107.349C128.019 107.529 127.79 107.666 127.549 107.756C127.169 107.897 126.76 107.924 126.347 107.829C125.673 107.673 125.075 107.212 124.665 106.529C124.31 105.938 124.133 105.242 124.156 104.542C123.675 103.973 123.019 103.15 122.114 101.959C121.572 103.439 121.001 104.838 120.394 106.105L120.102 106.72C120.054 106.82 120.002 106.93 119.951 107.037C120.027 107.207 120.105 107.381 120.186 107.562C120.406 108.057 120.629 108.557 120.841 109.026C121.96 109.342 123.219 109.969 124.725 110.721C125.607 111.161 126.597 111.655 127.713 112.16C130.984 109.033 134.274 99.552 134.96 94.0195C134.364 93.4021 133.985 92.5049 133.836 91.338C133.72 90.4317 133.749 89.3772 133.889 88.2447C132.624 87.2048 131.722 86.1171 131.254 84.9006C130.801 83.722 130.8 82.495 131.243 81.3464C131.227 81.1259 131.229 80.9036 131.254 80.6823C131.343 79.8872 131.683 79.1975 132.213 78.7394C132.751 78.2746 133.42 78.1039 134.094 78.2594C134.769 78.4144 135.367 78.8763 135.776 79.5593C135.911 79.784 136.017 80.0244 136.1 80.2736C137.062 77.925 138.171 75.9105 139.124 74.8584C139.189 74.7869 139.257 74.7274 139.326 74.6668C138.107 74.2119 136.966 73.8969 135.899 73.7783C135.576 73.8256 135.227 73.802 134.858 73.7273C133.2 73.7573 131.742 74.3593 130.479 75.7819ZM125.134 87.6555C126.722 81.7004 128.101 76.5882 129.634 74.8623C130.516 73.8688 131.48 73.2331 132.503 72.8681C132.384 72.8147 132.264 72.7607 132.144 72.7062C130.654 72.0335 128.967 71.2708 128.194 71.8538C127.36 72.4826 126.352 77.0851 125.375 81.5368C124.985 83.317 124.571 85.2039 124.125 87.0596C124.431 87.2289 124.772 87.431 125.134 87.6555ZM131.412 92.4416L131.416 92.5107C131.529 92.7935 131.573 93.1093 131.538 93.4248C131.474 93.9958 131.166 94.4509 130.735 94.6116C130.564 94.6754 130.388 94.6866 130.209 94.6457C129.978 94.5925 129.767 94.4527 129.595 94.2479L129.593 94.2467C129.216 94.097 128.862 93.9548 128.52 93.8168C128.588 94.0722 128.688 94.3169 128.823 94.5415C129.14 95.0684 129.596 95.4234 130.108 95.541C130.621 95.6594 131.132 95.5263 131.547 95.1681C131.97 94.802 132.243 94.2462 132.315 93.6035C132.387 92.9608 132.249 92.3106 131.926 91.773C131.61 91.2462 131.153 90.8909 130.641 90.7732C130.329 90.7015 130.018 90.7223 129.729 90.83L129.717 90.8362C130.514 91.4538 131.121 91.9762 131.339 92.2596L131.401 92.3404L131.412 92.4416ZM122.335 93.4712C122.176 93.9417 121.984 94.463 121.766 95.0262C122.017 95.3724 122.322 95.8303 122.697 96.4235C123.15 94.924 123.582 93.3977 123.997 91.8817C123.598 91.6943 123.265 91.5303 122.99 91.3876C122.779 92.1108 122.561 92.8087 122.335 93.4712ZM123.673 87.6991L122.973 87.4848C122.927 87.5415 122.855 87.6495 122.768 87.8443C122.445 88.568 122.298 89.6122 122.354 89.9837L122.376 89.9999L122.96 90.4329L122.892 90.6697C123.789 91.1552 125.694 92.0505 129.743 93.6568L129.901 93.7202C130.064 93.7857 130.37 93.8681 130.593 93.6799C130.804 93.5008 130.897 93.1069 130.856 92.5645C129.973 91.5528 125.592 88.5614 123.718 87.5069L123.673 87.6991ZM172.458 63.0413C172.035 62.8882 171.839 63.0066 171.661 63.2482C170.932 64.2361 171.085 65.2911 171.296 66.7513C171.753 69.918 172.323 73.8586 164.512 78.7757C157.193 83.3825 150.169 79.9328 145.522 77.65C143.142 76.4805 141.084 75.47 140.381 76.2497C139.026 77.7447 137.213 81.714 136.211 85.4809C138.353 87.1919 142.284 89.1391 146.016 90.9301C149.744 92.7196 153.798 94.6661 157.541 96.9396C165.074 94.8235 173.433 89.5527 182.573 81.1219C181.356 74.8351 175.404 64.109 172.458 63.0413Z" fill="goldenrod"/>
</svg>
